<svg width="61" height="48" viewBox="0 0 61 48" fill="none" xmlns="http://www.w3.org/2000/svg">
<path d="M55.8588 34.8953H55.5685C57.2261 34.4114 58.6416 33.1531 59.5854 31.4713C61.0858 28.8094 61.001 25.6031 59.3555 23.0986C58.9199 22.4332 58.3513 21.8403 57.6979 21.3926V20.4731C57.6979 18.9607 56.73 17.6419 55.3507 17.2668L51.8298 16.2989C51.1764 16.1174 50.4869 16.1174 49.8335 16.2989L46.3489 17.2668C44.9938 17.6298 44.0379 18.9486 44.0379 20.461V21.3563C43.3603 21.8282 42.7797 22.4211 42.332 23.1107C40.6865 25.6273 40.6017 28.8094 42.1021 31.4834C43.0459 33.1652 44.4735 34.4235 46.119 34.9074H44.4372C42.9974 33.2983 40.9527 32.3787 38.799 32.3666H35.0845V31.4229C38.4844 29.8137 40.7954 26.5469 41.1584 22.7961C42.6829 22.7114 43.8806 21.441 43.8685 19.9165C43.8443 18.4404 42.7313 17.2063 41.2551 17.049V12.6207C41.2551 11.4592 41.0011 10.3218 40.4808 9.28128C39.2346 6.74048 36.6333 5.13128 33.8021 5.14338H27.0991C25.5867 5.14338 24.1831 5.95398 23.4329 7.27278C20.6017 8.71258 20.1056 11.9915 20.0935 12.1367C20.0816 12.1851 20.0816 12.2214 20.0816 12.2698V17.0611C19.3919 17.0974 18.7385 17.3999 18.2546 17.8959C17.7101 18.4404 17.4076 19.1664 17.4076 19.9286C17.4076 21.4652 18.6054 22.7235 20.142 22.8082C20.3598 25.2644 21.4487 27.5632 23.191 29.3055C24.1832 30.2734 25.3447 31.0357 26.615 31.5802V32.3666H22.8885C20.2267 32.3908 17.7705 33.8064 16.4396 36.1174H13.79V35.9722L15.3629 34.9437C15.4113 34.9074 15.4717 34.859 15.5079 34.8106C16.5728 33.7459 17.2502 32.3666 17.4559 30.8784C18.4602 30.6727 19.174 29.8016 19.1861 28.7731C19.1982 27.781 18.5208 26.9099 17.5527 26.6921V22.4453C17.5527 21.0054 16.5727 19.7471 15.1692 19.3963L11.6121 18.4888C11.3217 18.4162 11.0191 18.3799 10.7167 18.3678C10.3537 18.3557 10.0029 18.4041 9.65198 18.4767C9.63988 18.4767 9.63988 18.4767 9.62778 18.4767L6.11901 19.3842C4.7276 19.7471 3.74756 21.0054 3.74756 22.4453V23.8367C3.74756 23.9093 3.71126 23.9819 3.71126 24.0544C3.71126 24.1512 3.74756 24.2359 3.74756 24.3206V26.68C2.77962 26.8978 2.10207 27.7689 2.11417 28.761C2.11417 29.7895 2.82802 30.6606 3.83226 30.8784C4.13474 33.1168 5.52615 35.0042 7.54671 36.0932H5.86492C3.1063 36.0932 0.84375 38.2952 0.84375 41.0538V43.4979C0.855849 44.0303 1.30352 44.4537 1.84798 44.4416H15.3629V47.0067C15.375 47.539 15.8104 47.9625 16.3428 47.9504H45.3447C45.877 47.9625 46.3125 47.539 46.3246 47.0067V44.4537H59.8396C60.3718 44.4658 60.8195 44.0545 60.8438 43.51V40.2432C60.8559 37.3152 58.5933 34.8953 55.8588 34.8953ZM58.2304 25.0466C58.061 24.9619 57.8915 24.8893 57.71 24.8288V24.0786C57.71 24.1028 57.7463 24.1391 57.7584 24.1633C57.9399 24.4416 58.0973 24.7441 58.2304 25.0466ZM57.6375 29.1966C58.0005 29.1119 58.3392 28.9304 58.6054 28.6763C58.4724 29.3297 58.2424 29.9589 57.9157 30.5396C57.6012 31.1083 57.2018 31.6165 56.7179 32.0399C57.2018 31.1688 57.5165 30.1887 57.6375 29.1966ZM41.2551 19.0091C41.7511 19.1543 42.0415 19.6866 41.8964 20.1827C41.7995 20.5094 41.5455 20.7514 41.2188 20.8361L41.2551 19.0091ZM20.0816 20.8482C19.6581 20.7272 19.3677 20.3521 19.3435 19.9165C19.3435 19.6624 19.4403 19.4205 19.6217 19.2511C19.7549 19.1301 19.9122 19.0454 20.0816 18.997V20.8482ZM11.7815 21.3442H11.6121V21.1264C11.6121 20.8482 11.5031 20.5941 11.2975 20.4126L14.6853 21.2716C15.2298 21.4047 15.6047 21.8887 15.6168 22.4453V25.5185C14.4069 25.9903 13.197 25.8935 12.1081 25.2402C11.6846 24.9861 11.2975 24.6715 10.9586 24.3085C11.3579 24.1754 11.6121 23.8004 11.6121 23.389V23.2801H11.7815C12.3139 23.2801 12.7493 22.8445 12.7493 22.3122C12.7493 21.7798 12.3139 21.3442 11.7815 21.3442ZM5.68344 24.0544V22.4453C5.68344 21.8887 6.07061 21.4047 6.60298 21.2716L10.0028 20.4005C9.79717 20.582 9.67618 20.8482 9.67618 21.1264V21.3442H9.50679C8.97442 21.3442 8.53885 21.7798 8.53885 22.3122C8.53885 22.8445 8.97442 23.2801 9.50679 23.2801H9.67618V23.3285C9.55518 23.3164 9.3858 23.3164 9.22851 23.3164C7.8492 23.3164 6.65137 23.8609 5.68344 24.4295V24.0544ZM5.68344 29.9468V26.8494C6.2884 26.3533 7.64351 25.2765 9.18011 25.2523C9.70037 25.8814 10.3053 26.4259 10.995 26.8615C11.9146 27.4422 12.9792 27.7447 14.0681 27.7568C14.5884 27.7568 15.0967 27.6842 15.6047 27.5511V29.9468C15.6047 31.2293 15.0967 32.4513 14.2134 33.3587L12.2896 34.5929C11.7572 34.7865 11.2006 34.8711 10.6441 34.8711C10.1117 34.8711 9.57938 34.7865 9.07122 34.6171C7.05065 33.9516 5.68344 32.0641 5.68344 29.9468ZM2.77962 42.5179V41.0659C2.77962 39.3842 4.18313 38.0411 5.86492 38.0411H8.34526L9.66408 39.3237V42.5179H2.77962ZM9.84557 36.7586C10.4747 36.8312 11.1039 36.8191 11.721 36.7223L10.7651 37.6782L9.84557 36.7586ZM15.3629 39.8923V42.5179H11.6121V39.5777L13.1728 38.0411H15.629C15.4597 38.6461 15.3629 39.2753 15.3629 39.8923ZM38.9078 39.6019C39.6217 39.6019 40.2024 40.1827 40.2024 40.8966C40.2024 41.6104 39.6217 42.1912 38.9078 42.1912C38.569 42.1912 38.2304 42.0581 38.0005 41.8161C37.4922 41.3079 37.4922 40.4852 38.0005 39.977C38.2425 39.7471 38.569 39.6019 38.9078 39.6019ZM25.0301 8.41018C25.4051 7.58738 26.2159 7.06718 27.1112 7.06718H33.8142C35.9194 7.06718 37.8311 8.25288 38.7626 10.1404C39.1377 10.9147 39.3313 11.7616 39.3313 12.6207V16.0811C37.3954 15.0768 35.6773 13.6854 34.2859 12.0036C34.1045 11.7858 33.8384 11.6528 33.5601 11.6528H27.1232C25.8528 11.6528 24.8365 10.6243 24.8365 9.35388C24.8123 9.03928 24.8848 8.71258 25.0301 8.41018ZM22.0173 12.3303C22.1383 12.0883 22.2836 11.072 22.9491 10.1646C23.2878 11.931 24.7154 13.2861 26.494 13.5523C25.2115 14.5566 23.6386 15.1252 22.0173 15.1978V12.3303ZM22.0173 17.1216C23.5903 17.0853 26.6635 16.5045 29.277 13.6007H33.0882C34.1529 14.8106 35.7621 16.2626 38.0005 17.5935H22.1868C22.1383 17.5935 22.1383 17.5572 22.0173 17.5693V17.1216ZM38.1335 19.5293C38.073 20.9329 36.8873 22.0218 35.4837 21.9613C34.5037 21.9129 33.6447 21.32 33.2575 20.4126C33.1487 20.1343 33.076 19.8318 33.0639 19.5293H38.1335ZM31.1402 19.7713H30.1602C30.1723 19.6503 30.1723 19.6503 30.1723 19.5293H31.1159C31.128 19.6503 31.128 19.6503 31.1402 19.7713ZM24.7155 21.7677C23.8081 21.3926 23.191 20.5215 23.1546 19.5293H28.2363C28.2121 19.8318 28.1516 20.1222 28.0427 20.4005V20.3884C27.4984 21.6951 26.0102 22.3122 24.7155 21.7677ZM24.5583 27.9262C22.9733 26.3533 22.0658 24.2238 22.0415 21.9855C23.4813 23.994 26.2763 24.4658 28.2969 23.026C28.7929 22.6751 29.2043 22.2275 29.5189 21.7193H31.7936C33.076 23.8246 35.8225 24.5021 37.9278 23.2196C38.4482 22.905 38.8958 22.4816 39.2588 21.9855C39.1861 26.68 35.3507 30.4549 30.6562 30.4549C29.7246 30.4549 28.805 30.3097 27.9338 30.0194C26.6634 29.5717 25.502 28.8578 24.5583 27.9262ZM29.6399 46.0266H17.2987V39.8923C17.3108 39.0575 17.5044 38.2347 17.8794 37.4967C18.7384 35.7423 20.4324 34.5445 22.3804 34.3509V34.9679C21.7027 35.1252 21.0979 35.4761 20.6259 35.9843C19.8879 36.7102 19.4765 37.7145 19.4765 38.7429V42.8566C19.4765 43.389 19.8517 43.8488 20.396 43.8488H21.5576C22.09 43.8488 22.5256 43.4132 22.5256 42.8808C22.5256 42.3485 22.09 41.9129 21.5576 41.9129H21.4125V38.7429C21.4004 38.2347 21.594 37.7387 21.9569 37.3757C22.3078 37.0248 22.7917 36.8191 23.2878 36.8312H23.3241C24.4131 36.8312 25.2841 37.654 25.2841 38.7429V41.9129H24.788C24.2557 41.9129 23.8202 42.3485 23.8202 42.8808C23.8202 43.4132 24.2557 43.8488 24.788 43.8488H26.2521C26.7966 43.8367 27.2201 43.389 27.2201 42.8566V38.7429C27.2443 36.9643 26.0464 35.3914 24.3162 34.9558V34.2904H27.1838L29.6399 36.8312V46.0266ZM28.5509 32.9595V32.173C30.0754 32.4755 31.6363 32.4513 33.1487 32.0883V32.9716L30.8619 35.2704L28.5509 32.9595ZM44.401 46.0266H31.5758V37.2305L34.4916 34.2904H37.9883V37.8113C36.6333 38.2226 35.7015 39.4809 35.7015 40.8966C35.7136 42.6751 37.1656 44.1149 38.9441 44.1028C40.7227 44.0908 42.1626 42.6388 42.1505 40.8603C42.1384 39.4688 41.243 38.2468 39.9243 37.8113V34.4235C42.5377 34.9316 44.4131 37.2305 44.401 39.8923V46.0266ZM51.9871 19.2874H51.7814V19.0333C51.7935 18.5977 51.5032 18.2105 51.0797 18.1016C51.1523 18.1137 51.2369 18.1258 51.3096 18.15L54.8425 19.118C55.387 19.2632 55.7742 19.8197 55.7742 20.461V24.0061C52.9914 24.4537 51.3942 23.0139 50.8741 22.4574C51.3942 22.4453 51.7935 22.0097 51.7814 21.4894V21.2232H51.9871C52.5194 21.2232 52.9551 20.7877 52.9551 20.2553C52.9551 19.7229 52.5315 19.2874 51.9871 19.2874ZM45.9739 20.461C45.9739 19.8197 46.3489 19.2632 46.8933 19.118L50.3779 18.15C50.4627 18.1258 50.5473 18.1016 50.6441 18.1016C50.1964 18.1984 49.8698 18.5856 49.8577 19.0454V19.2874H49.7608C49.2285 19.2874 48.7929 19.7229 48.7929 20.2553C48.7929 20.7877 49.2285 21.2232 49.7608 21.2232H49.8577V21.4773C49.8698 21.5983 49.8939 21.7193 49.9544 21.8282C49.9423 21.8282 49.9303 21.8282 49.9182 21.8282C49.6036 21.8282 49.3132 21.9855 49.1317 22.2517C48.0427 23.8246 46.8329 24.1633 45.986 24.1996V21.925H45.9739V20.461ZM43.9412 24.1633C43.9775 24.1149 44.0379 24.0665 44.0379 24.0182V24.8288C43.8322 24.8772 43.6265 24.9619 43.4571 25.0829C43.5902 24.7562 43.7597 24.4537 43.9412 24.1633ZM43.7839 30.5396C43.4451 29.9468 43.203 29.2934 43.0821 28.628C43.3603 28.9062 43.7113 29.0998 44.0984 29.1845C44.2194 30.2129 44.534 31.2051 45.0421 32.1004C44.5462 31.6528 44.1105 31.1325 43.7839 30.5396ZM45.9739 28.2771V26.1355C47.0628 26.1113 48.5872 25.7604 50.0028 24.2601C51.5878 25.6394 53.6931 26.2565 55.7742 25.954V28.265C55.7863 29.6443 55.2903 30.9873 54.3707 32.0278L52.5437 33.2982L50.7772 33.6491C50.2932 33.637 49.8092 33.5523 49.3494 33.3829L49.3012 33.3708C49.2528 33.3587 49.2043 33.3345 49.168 33.3103C49.1559 33.3103 49.1438 33.2982 49.1317 33.2982C47.2442 32.5239 45.9739 30.4912 45.9739 28.2771ZM46.3368 42.5179V39.8923C46.3246 38.8397 46.1069 37.7992 45.6834 36.8312H48.5993C48.9623 37.1579 49.3857 37.4241 49.8456 37.6056V42.5179H46.3368ZM50.0271 35.5366C50.3054 35.5729 50.5957 35.5971 50.8741 35.5971C50.9344 35.5971 51.007 35.585 51.0676 35.5729L52.0234 35.3793V35.4882C51.7088 35.7302 51.3217 35.8512 50.9224 35.8391C50.5958 35.827 50.2933 35.7181 50.0271 35.5366ZM51.7814 42.5179V37.6661C52.3864 37.533 52.9188 37.3152 53.3665 36.8312H55.8588C57.5285 36.8312 58.9199 38.392 58.9199 40.2432V42.5179H51.7814Z" fill="#04CE78"/>
<path d="M49.3619 26.1718C48.8295 26.1718 48.3939 26.6074 48.3939 27.1398C48.3939 26.6074 47.9584 26.1718 47.426 26.1718C46.8936 26.1718 46.4581 26.6074 46.4581 27.1398V27.4059C46.4581 28.5433 47.305 29.4628 48.3939 29.4628C49.4829 29.4628 50.3298 28.5312 50.3298 27.4059V27.1398C50.3298 26.6074 49.8942 26.1718 49.3619 26.1718ZM48.3939 27.5027C48.3818 27.4906 48.3939 27.4543 48.3939 27.4059C48.3939 27.4543 48.406 27.4906 48.3939 27.5027Z" fill="#04CE78"/>
<path d="M54.3223 26.1597C53.79 26.1597 53.3544 26.5953 53.3544 27.1277C53.3544 26.5953 52.9188 26.1597 52.3864 26.1597C51.8541 26.1597 51.4185 26.5953 51.4185 27.1277V27.3939C51.4185 28.5312 52.2655 29.4507 53.3544 29.4507C54.4433 29.4507 55.2903 28.5312 55.2903 27.3939V27.1277C55.2903 26.5953 54.8547 26.1597 54.3223 26.1597ZM53.3544 27.5148C53.3423 27.4906 53.3544 27.4543 53.3544 27.406C53.3544 27.4543 53.3665 27.4906 53.3544 27.5148Z" fill="#04CE78"/>
<path d="M9.19228 27.7931C8.65992 27.7931 8.22435 28.2287 8.22435 28.761V29.0151C8.22435 29.0393 8.18805 29.0514 8.16385 29.0514C8.13965 29.0514 8.10335 29.0393 8.10335 29.0151V28.761C8.10335 28.2287 7.66778 27.7931 7.13542 27.7931C6.60305 27.7931 6.16748 28.2287 6.16748 28.761V29.0151C6.16748 30.1161 7.06282 31.0115 8.16385 31.0115C9.26488 31.0115 10.1602 30.1161 10.1602 29.0151V28.761C10.1602 28.2287 9.72465 27.7931 9.19228 27.7931Z" fill="#04CE78"/>
<path d="M14.1527 27.7931C13.6203 27.7931 13.1847 28.2287 13.1847 28.761V29.0151C13.1847 29.0393 13.1484 29.0514 13.1243 29.0514C13.1001 29.0514 13.0638 29.0393 13.0638 29.0151V28.761C13.0638 28.2287 12.6282 27.7931 12.0958 27.7931C11.5635 27.7931 11.1279 28.2287 11.1279 28.761V29.0151C11.14 30.1161 12.0353 30.9873 13.1243 30.9873C14.2132 30.9873 15.1085 30.104 15.1206 29.0151V28.761C15.1206 28.2287 14.685 27.7931 14.1527 27.7931Z" fill="#04CE78"/>
<path d="M34.3221 38.525H33.5114C32.9791 38.525 32.5435 38.9606 32.5435 39.4929C32.5435 40.0253 32.9791 40.4609 33.5114 40.4609H34.3221C34.8545 40.4609 35.29 40.0253 35.29 39.4929C35.29 38.9606 34.8545 38.525 34.3221 38.525Z" fill="#04CE78"/>
<path d="M34.3221 40.9448H33.5114C32.9791 40.9448 32.5435 41.3804 32.5435 41.9128C32.5435 42.4451 32.9791 42.8807 33.5114 42.8807H34.3221C34.8545 42.8807 35.29 42.4451 35.29 41.9128C35.29 41.3804 34.8545 40.9448 34.3221 40.9448Z" fill="#04CE78"/>
<path d="M17.5892 4.88924C17.5771 4.88924 17.5771 4.88924 17.565 4.88924H13.6691V0.993309C13.6691 0.473039 13.2577 0.0495694 12.7495 0.0495694C12.7374 0.0495694 12.7374 0.0495694 12.7253 0.0495694H9.70047C9.16811 0.0374694 8.72044 0.460939 8.70834 0.993309V4.88924H4.86079C4.32842 4.87714 3.88075 5.28854 3.86865 5.83304V8.85784C3.88075 9.40224 4.31632 9.83784 4.86079 9.84994H8.70834V13.6853C8.70834 14.2298 9.14391 14.6775 9.70047 14.6896H12.7253C13.2577 14.6775 13.6812 14.2298 13.6812 13.6853V9.84994H17.565C18.0974 9.83784 18.5329 9.39014 18.5209 8.85784V5.83304C18.5209 5.31274 18.1095 4.90134 17.5892 4.88924ZM16.5729 7.91404H12.7132C12.1809 7.90194 11.7453 8.31334 11.7332 8.84574C11.7332 8.84574 11.7332 8.84574 11.7332 8.85784V12.7537H10.6442V8.85784C10.6563 8.34964 10.2449 7.92614 9.72467 7.91404C9.71257 7.91404 9.70047 7.91404 9.68837 7.91404H5.80453V6.82514H9.70047C10.2328 6.81304 10.6563 6.36534 10.6442 5.83304V1.98544H11.7332V5.83304C11.7332 6.37744 12.1688 6.81304 12.7132 6.82514H16.5729V7.91404Z" fill="#04CE78"/>
</svg>
