<svg width="61" height="60" viewBox="0 0 61 60" fill="none" xmlns="http://www.w3.org/2000/svg">
<path d="M34.3438 30.9375V25.3125H39.9688C40.2174 25.3125 40.4558 25.2137 40.6316 25.0379C40.8074 24.8621 40.9062 24.6236 40.9062 24.375V18.75C40.9062 18.5014 40.8074 18.2629 40.6316 18.0871C40.4558 17.9113 40.2174 17.8125 39.9688 17.8125H34.3438V12.1875C34.3438 11.9389 34.2449 11.7004 34.0691 11.5246C33.8933 11.3488 33.6549 11.25 33.4062 11.25H27.7812C27.5326 11.25 27.2941 11.3488 27.1183 11.5246C26.9425 11.7004 26.8438 11.9389 26.8438 12.1875V17.8125H21.2188C20.9701 17.8125 20.7316 17.9113 20.5558 18.0871C20.38 18.2629 20.2812 18.5014 20.2812 18.75V24.375C20.2812 24.6236 20.38 24.8621 20.5558 25.0379C20.7316 25.2137 20.9701 25.3125 21.2188 25.3125H26.8438V30.9375C26.8438 31.1861 26.9425 31.4246 27.1183 31.6004C27.2941 31.7762 27.5326 31.875 27.7812 31.875H33.4062C33.6549 31.875 33.8933 31.7762 34.0691 31.6004C34.2449 31.4246 34.3438 31.1861 34.3438 30.9375ZM32.4688 24.375V30H28.7188V24.375C28.7188 24.1264 28.62 23.8879 28.4442 23.7121C28.2684 23.5363 28.0299 23.4375 27.7812 23.4375H22.1562V19.6875H27.7812C28.0299 19.6875 28.2684 19.5887 28.4442 19.4129C28.62 19.2371 28.7188 18.9986 28.7188 18.75V13.125H32.4688V18.75C32.4688 18.9986 32.5676 19.2371 32.7434 19.4129C32.9192 19.5887 33.1576 19.6875 33.4062 19.6875H39.0312V23.4375H33.4062C33.1576 23.4375 32.9192 23.5363 32.7434 23.7121C32.5676 23.8879 32.4688 24.1264 32.4688 24.375Z" fill="#1F5FFF"/>
<path d="M35.7876 49.3594C41.4313 43.0312 50.2812 31.5187 50.2812 21.5625C50.2812 16.3411 48.2071 11.3335 44.5149 7.64134C40.8228 3.94921 35.8151 1.875 30.5938 1.875C25.3724 1.875 20.3647 3.94921 16.6726 7.64134C12.9805 11.3335 10.9062 16.3411 10.9062 21.5625C10.9062 31.5187 19.7563 43.0312 25.4 49.3594C22.2031 50.1469 20.2812 51.6469 20.2812 53.4375C20.2812 56.4844 25.5968 58.125 30.5938 58.125C35.5907 58.125 40.9062 56.4844 40.9062 53.4375C40.9062 51.6469 38.9844 50.1469 35.7876 49.3594ZM16.5312 21.5625C16.5312 18.7812 17.3561 16.0624 18.9013 13.7498C20.4465 11.4372 22.6426 9.6348 25.2122 8.57044C27.7818 7.50609 30.6094 7.2276 33.3372 7.77021C36.0651 8.31281 38.5707 9.65213 40.5374 11.6188C42.5041 13.5855 43.8435 16.0912 44.3861 18.819C44.9286 21.5469 44.6502 24.3744 43.5858 26.944C42.5215 29.5136 40.719 31.7098 38.4064 33.255C36.0938 34.8003 33.375 35.625 30.5938 35.625C26.8656 35.6205 23.2912 34.1375 20.6549 31.5013C18.0187 28.865 16.5357 25.2907 16.5312 21.5625ZM31.5312 43.125V45.6656C31.9062 45.2437 32.2906 44.8219 32.6656 44.3906L34.0906 45.6094C33.1625 46.6875 32.225 47.7375 31.2782 48.7406C31.1905 48.8346 31.0846 48.9096 30.9669 48.9612C30.8493 49.0128 30.7222 49.0398 30.5938 49.0406C30.4655 49.0389 30.3387 49.0115 30.2211 48.9599C30.1036 48.9084 29.9977 48.8338 29.9093 48.7406C28.9812 47.7469 28.0344 46.6969 27.1063 45.6094L28.5312 44.3906C28.9062 44.8219 29.2812 45.2344 29.6562 45.6562V43.125H31.5312ZM29.6562 41.25V39.375H31.5312V41.25H29.6562ZM30.5938 56.25C25.4468 56.25 22.1562 54.5812 22.1562 53.4375C22.1562 52.7438 23.6375 51.5531 26.8718 50.9719C28.5687 52.7906 29.7593 53.9437 29.9468 54.1219C30.1231 54.2845 30.354 54.3749 30.5938 54.3749C30.8335 54.3749 31.0644 54.2845 31.2407 54.1219C31.4282 53.9437 32.6188 52.7906 34.3157 50.9719C37.5501 51.5531 39.0312 52.7438 39.0312 53.4375C39.0312 54.5812 35.7407 56.25 30.5938 56.25Z" fill="#1F5FFF"/>
</svg>
