<svg xmlns="http://www.w3.org/2000/svg" version="1.1" xmlns:xlink="http://www.w3.org/1999/xlink" xmlns:svgjs="http://svgjs.dev/svgjs" width="2000" height="2000" viewBox="0 0 2000 2000"><g transform="matrix(1,0,0,1,0,0)"><svg viewBox="0 0 280 280" data-background-color="#581381" preserveAspectRatio="xMidYMid meet" height="2000" width="2000" xmlns="http://www.w3.org/2000/svg" xmlns:xlink="http://www.w3.org/1999/xlink"><g id="tight-bounds" transform="matrix(1,0,0,1,0,0)"><svg viewBox="0 0 280 280" height="280" width="280"><g><svg viewBox="0 0 280 280" height="280" width="280"><g><svg viewBox="0 0 280 280" height="280" width="280"><g id="textblocktransform"><svg viewBox="0 0 280 280" height="280" width="280" id="textblock"><g><svg viewBox="0 0 280 280" height="280" width="280"><g transform="matrix(1,0,0,1,99.51151657881307,74.00336708925556)"><svg viewBox="0 0 80.97696684237386 131.99326582148888" height="131.99326582148888" width="80.97696684237386"><g id="icon-0"><svg xmlns="http://www.w3.org/2000/svg" xml:space="preserve" viewBox="0 -1.2194956843220825e-7 100 163.00100012194957" id="jxe-0" width="80.97696684237386" height="131.99326582148888" x="0" y="0" class="icon-jxe-0" data-fill-palette-color="accent"><path d="M83.008 13.74c1.966-0.307 3.475-1.993 3.475-4.044V4.108A4.11 4.11 0 0 0 82.375 0h-64.75a4.107 4.107 0 0 0-4.108 4.108v5.587a4.1 4.1 0 0 0 3.474 4.044C8.418 19.585 0 30.177 0 37.261v108.147c0 10.228 8.291 17.593 18.518 17.593h62.963c10.228 0 18.519-7.365 18.519-17.593V37.261c0-7.084-8.418-17.676-16.992-23.521M67.082 36.794h5.397v-5.397h5.811v5.397h5.397v5.811H78.29v5.396h-5.811v-5.396h-5.397z m16.621 79.171a4.63 4.63 0 0 1-4.63 4.629H20.926a4.63 4.63 0 0 1-4.63-4.629v-49.26a4.63 4.63 0 0 1 4.63-4.629h58.147a4.63 4.63 0 0 1 4.63 4.629z" fill="#000000" data-fill-palette-color="accent"></path><path d="M72.963 72.446H27.037a3.333 3.333 0 1 0 0 6.666h45.926a3.333 3.333 0 1 0 0-6.666M72.963 88.557H27.037a3.333 3.333 0 0 0 0 6.667h45.926a3.334 3.334 0 0 0 0-6.667M72.963 103.558H45.554a3.333 3.333 0 0 0 0 6.666h27.409a3.333 3.333 0 1 0 0-6.666" fill="#000000" data-fill-palette-color="accent"></path></svg></g></svg></g><g id="text-0"><path d="M29.375 80.975l10.454 4.043 0.665 0.258-1.629 4.211-10.767-4.165c-0.8-0.31-1.557-0.595-2.27-0.857-0.719-0.264-1.385-0.436-1.997-0.518-0.621-0.077-1.149-0.02-1.585 0.173-0.438 0.199-0.783 0.624-1.035 1.277v0c-0.045 0.117-0.11 0.329-0.194 0.636-0.075 0.304-0.138 0.676-0.187 1.117-0.048 0.434-0.048 0.937 0 1.507 0.048 0.571 0.17 1.163 0.365 1.776v0c0.911 0.352 1.64 0.627 2.186 0.825 0.54 0.195 1.128 0.415 1.762 0.66v0l11.118 4.3-1.643 4.248-10.767-4.165c-0.8-0.31-1.554-0.601-2.263-0.875-0.714-0.276-1.379-0.452-1.994-0.527-0.621-0.077-1.152-0.014-1.592 0.191-0.44 0.205-0.782 0.621-1.024 1.25v0c-0.083 0.215-0.169 0.519-0.256 0.909-0.084 0.399-0.135 0.833-0.153 1.3-0.022 0.459-0.005 0.936 0.051 1.432 0.052 0.487 0.162 0.926 0.33 1.316v0l15.089 5.837-1.654 4.275-19.789-7.654 1.479-3.824 2.215 0.337c-0.316-0.794-0.522-1.741-0.62-2.841-0.098-1.1 0.048-2.154 0.438-3.164v0c0.433-1.12 1.042-1.961 1.824-2.521 0.781-0.554 1.793-1.023 3.038-1.405v0c-0.291-0.565-0.529-1.167-0.713-1.805-0.179-0.635-0.296-1.265-0.353-1.888-0.054-0.629-0.053-1.227 0.004-1.792 0.058-0.572 0.178-1.092 0.359-1.56v0c0.307-0.794 0.757-1.48 1.348-2.058 0.585-0.58 1.273-1.022 2.062-1.326 0.787-0.297 1.641-0.437 2.562-0.421 0.918 0.023 1.845 0.215 2.782 0.577v0z" fill="#000000" data-fill-palette-color="primary"></path><path d="M50.775 53.677l3.736 3.157 0.234 0.198c0.151 0.128 0.382 0.31 0.693 0.546 0.314 0.231 0.649 0.444 1.002 0.64 0.354 0.204 0.711 0.35 1.069 0.437 0.349 0.088 0.651 0.058 0.906-0.09v0l1.155 2.545c-0.213 0.252-0.495 0.468-0.845 0.647-0.35 0.179-0.74 0.308-1.169 0.386-0.428 0.087-0.85 0.111-1.266 0.071-0.41-0.036-0.81-0.136-1.198-0.3v0c0.217 0.408 0.321 0.898 0.313 1.47-0.004 0.567-0.074 1.156-0.21 1.767-0.137 0.602-0.354 1.196-0.651 1.783-0.297 0.587-0.625 1.092-0.983 1.516v0c-0.55 0.65-1.166 1.206-1.849 1.666-0.678 0.455-1.403 0.75-2.174 0.885-0.775 0.14-1.589 0.07-2.441-0.21-0.847-0.275-1.73-0.801-2.648-1.576v0c-0.882-0.746-1.486-1.576-1.811-2.49-0.33-0.918-0.452-1.843-0.366-2.773 0.081-0.934 0.336-1.86 0.765-2.776 0.429-0.917 0.967-1.758 1.615-2.524v0l2.064-2.443c-0.938-0.793-1.724-1.375-2.36-1.748-0.636-0.373-1.182-0.554-1.64-0.543-0.449 0.01-0.849 0.156-1.2 0.437-0.352 0.273-0.722 0.639-1.109 1.098v0c-0.358 0.423-0.642 0.866-0.851 1.329-0.209 0.463-0.375 0.914-0.498 1.356-0.127 0.437-0.205 0.846-0.234 1.228-0.028 0.391-0.041 0.683-0.039 0.874v0l-3.082-0.387c-0.045-0.366-0.016-0.835 0.086-1.406 0.102-0.571 0.276-1.175 0.522-1.814 0.25-0.644 0.57-1.303 0.959-1.977 0.388-0.674 0.849-1.327 1.381-1.957v0c0.486-0.575 1.019-1.088 1.599-1.54 0.576-0.446 1.187-0.781 1.834-1.004 0.646-0.223 1.337-0.314 2.071-0.272 0.735 0.051 1.495 0.291 2.281 0.722v0c0.786 0.431 1.535 0.909 2.249 1.435 0.723 0.525 1.42 1.071 2.09 1.637zM52.746 61.254l-3.962-3.349-1.554 1.837c-0.324 0.383-0.627 0.818-0.909 1.306-0.282 0.487-0.471 1.002-0.566 1.544-0.095 0.542-0.046 1.098 0.147 1.667 0.189 0.574 0.588 1.119 1.198 1.635v0c0.958 0.81 1.832 1.177 2.622 1.101 0.781-0.075 1.518-0.523 2.213-1.345v0c0.486-0.575 0.799-1.257 0.938-2.046 0.141-0.78 0.098-1.563-0.127-2.35z" fill="#000000" data-fill-palette-color="primary"></path><path d="M72.741 24.997l4.323-2.815-0.062 12.66 11.608 5.142-4.38 2.853-7.737-4.024-0.316 0.205 0.262 8.893-4.381 2.853-0.009-12.696-11.595-5.068 4.314-2.81 7.825 4.014 0.315-0.205z" fill="#000000" data-fill-palette-color="primary"></path><path d="M140.642 27.052l0.074 0.748-4.571 0.454-1.14-11.488c-0.085-0.854-0.201-1.662-0.35-2.423-0.149-0.768-0.391-1.437-0.726-2.008-0.335-0.57-0.756-1.003-1.263-1.297-0.506-0.288-1.183-0.39-2.031-0.306v0c-0.276 0.027-0.63 0.099-1.063 0.214-0.426 0.122-0.864 0.281-1.315 0.479-0.445 0.19-0.86 0.42-1.245 0.691-0.392 0.264-0.675 0.554-0.849 0.87v0l0.022 0.227 0.008 0.079 0.824 8.305 0.008 0.079 0.735 7.41-4.523 0.448-2.885-29.085 4.523-0.449 1.002 10.109c0.275-0.306 0.628-0.626 1.059-0.961 0.438-0.329 0.919-0.635 1.441-0.919 0.53-0.278 1.073-0.514 1.631-0.709 0.564-0.195 1.119-0.32 1.665-0.374v0c1.123-0.111 2.096 0.034 2.919 0.437 0.822 0.396 1.654 0.93 2.497 1.603v0c0.469 0.378 0.849 0.838 1.142 1.379 0.292 0.535 0.524 1.102 0.696 1.702 0.173 0.606 0.303 1.217 0.39 1.832 0.088 0.621 0.162 1.234 0.223 1.839v0z" fill="#000000" data-fill-palette-color="primary"></path><path d="M168.162 9.988v0c1.678 0.325 3.09 0.951 4.235 1.879 1.153 0.922 2.032 2.024 2.638 3.305 0.606 1.28 0.945 2.688 1.018 4.221 0.079 1.535-0.147 3.068-0.679 4.598v0l-14.474-2.803c-0.153 0.791-0.145 1.549 0.023 2.274 0.164 0.717 0.452 1.365 0.865 1.942 0.413 0.577 0.942 1.07 1.589 1.478 0.654 0.409 1.385 0.692 2.196 0.849v0c0.272 0.053 0.615 0.086 1.03 0.098 0.42 0.021 0.872-0.006 1.356-0.08 0.491-0.073 0.988-0.189 1.49-0.347 0.5-0.152 0.956-0.37 1.367-0.653v0l1.153 2.795c-1.012 0.853-2.109 1.43-3.291 1.733-1.183 0.309-2.61 0.301-4.282-0.022v0c-1.354-0.262-2.571-0.784-3.65-1.565-1.071-0.786-1.932-1.739-2.583-2.86-0.65-1.121-1.097-2.371-1.341-3.749-0.245-1.372-0.225-2.797 0.061-4.274v0c0.281-1.452 0.793-2.778 1.537-3.979 0.742-1.194 1.618-2.191 2.627-2.991 1.01-0.806 2.135-1.375 3.376-1.706 1.242-0.338 2.488-0.385 3.739-0.143zM161.674 17.97l10.197 1.975c0.129-0.667 0.132-1.343 0.009-2.026-0.122-0.689-0.35-1.335-0.683-1.938-0.327-0.601-0.769-1.114-1.326-1.537-0.555-0.43-1.188-0.724-1.897-0.882v0c-0.765-0.148-1.496-0.138-2.194 0.029-0.699 0.174-1.33 0.462-1.892 0.864-0.562 0.402-1.038 0.915-1.428 1.539-0.391 0.63-0.653 1.289-0.786 1.976z" fill="#000000" data-fill-palette-color="primary"></path><path d="M207.118 35.953l-2.273 4.332-0.142 0.271c-0.092 0.175-0.22 0.44-0.384 0.795-0.158 0.357-0.293 0.729-0.407 1.117-0.123 0.39-0.188 0.77-0.195 1.138-0.01 0.36 0.085 0.648 0.285 0.865v0l-2.234 1.679c-0.292-0.153-0.564-0.382-0.815-0.684-0.251-0.303-0.461-0.656-0.631-1.058-0.178-0.399-0.293-0.806-0.343-1.22-0.054-0.408-0.043-0.82 0.033-1.235v0c-0.351 0.3-0.807 0.508-1.368 0.624-0.554 0.119-1.145 0.178-1.77 0.178-0.617-0.003-1.244-0.086-1.882-0.249-0.638-0.163-1.202-0.373-1.693-0.631v0c-0.754-0.396-1.43-0.877-2.027-1.444-0.591-0.564-1.036-1.207-1.335-1.93-0.305-0.726-0.413-1.536-0.324-2.429 0.085-0.887 0.407-1.862 0.965-2.926v0c0.537-1.023 1.216-1.792 2.038-2.308 0.825-0.521 1.701-0.841 2.627-0.958 0.93-0.124 1.888-0.075 2.876 0.145 0.988 0.22 1.926 0.563 2.814 1.029v0l2.832 1.486c0.57-1.087 0.969-1.981 1.195-2.683 0.226-0.701 0.285-1.274 0.176-1.719-0.107-0.436-0.336-0.795-0.688-1.077-0.343-0.284-0.78-0.566-1.312-0.845v0c-0.491-0.258-0.985-0.439-1.482-0.542-0.497-0.104-0.974-0.168-1.431-0.192-0.454-0.03-0.871-0.017-1.25 0.037-0.388 0.057-0.675 0.108-0.862 0.152v0l-0.289-3.093c0.348-0.123 0.811-0.197 1.39-0.221 0.579-0.024 1.207 0.015 1.885 0.117 0.683 0.105 1.396 0.274 2.138 0.507 0.742 0.233 1.479 0.541 2.209 0.924v0c0.666 0.35 1.283 0.759 1.85 1.228 0.561 0.466 1.02 0.99 1.377 1.572 0.358 0.583 0.596 1.237 0.715 1.963 0.11 0.728 0.04 1.523-0.211 2.383v0c-0.25 0.86-0.554 1.696-0.912 2.507-0.356 0.82-0.737 1.618-1.145 2.395zM200.148 39.52l2.41-4.595-2.13-1.117c-0.444-0.233-0.935-0.435-1.472-0.605-0.537-0.17-1.08-0.243-1.63-0.218-0.55 0.025-1.081 0.193-1.595 0.505-0.52 0.309-0.965 0.817-1.337 1.524v0c-0.583 1.111-0.751 2.043-0.506 2.798 0.242 0.746 0.84 1.369 1.793 1.868v0c0.666 0.35 1.4 0.507 2.2 0.473 0.792-0.032 1.547-0.243 2.267-0.633z" fill="#000000" data-fill-palette-color="primary"></path><path d="M238.111 37.774l-15.195 16.948c-0.568 0.634-0.932 1.208-1.091 1.722-0.159 0.514-0.168 0.993-0.027 1.439 0.141 0.446 0.377 0.865 0.707 1.258 0.33 0.403 0.722 0.807 1.174 1.212v0l-1.857 2.072c-0.281-0.181-0.558-0.381-0.832-0.6v0c-0.224-0.165-0.481-0.369-0.77-0.61-0.289-0.241-0.574-0.488-0.854-0.739v0c-0.28-0.251-0.551-0.512-0.814-0.783-0.263-0.271-0.489-0.523-0.679-0.755v0c-0.52-0.706-0.765-1.431-0.736-2.175 0.034-0.75 0.195-1.474 0.485-2.172 0.289-0.698 0.638-1.32 1.048-1.867 0.4-0.545 0.726-0.958 0.977-1.238v0l0.304-0.339 14.739-16.44z" fill="#000000" data-fill-palette-color="primary"></path><path d="M249.592 68.361l-9.52 6.789c-0.699 0.498-1.174 0.979-1.428 1.444-0.257 0.459-0.368 0.927-0.334 1.406 0.037 0.484 0.181 0.953 0.431 1.407 0.245 0.458 0.534 0.92 0.868 1.387v0l-2.265 1.616c-0.231-0.233-0.448-0.475-0.652-0.727v0c-0.182-0.21-0.392-0.47-0.629-0.78-0.237-0.309-0.465-0.617-0.683-0.924v0c-0.218-0.306-0.43-0.626-0.635-0.958-0.205-0.332-0.369-0.625-0.492-0.877v0c-0.371-0.781-0.455-1.536-0.252-2.264 0.208-0.732 0.533-1.401 0.975-2.009 0.442-0.607 0.921-1.135 1.437-1.584 0.514-0.439 0.924-0.768 1.23-0.987v0l9.311-6.639-1.615-2.265 2.515-1.794 1.615 2.266 4.902-3.495 2.638 3.7-4.901 3.495 1.966 2.757-2.516 1.793z" fill="#000000" data-fill-palette-color="primary"></path><path d="M251.192 112.06l-0.701 0.272-1.662-4.283 10.764-4.175c0.8-0.31 1.547-0.639 2.24-0.986 0.7-0.349 1.28-0.762 1.74-1.238 0.46-0.476 0.764-0.997 0.912-1.564 0.142-0.565 0.059-1.244-0.249-2.038v0c-0.1-0.258-0.264-0.581-0.492-0.967-0.231-0.378-0.503-0.757-0.813-1.139-0.302-0.378-0.635-0.716-0.999-1.015-0.36-0.307-0.715-0.502-1.066-0.584v0l-0.212 0.082-0.074 0.029-7.782 3.018-0.074 0.029-6.942 2.692-1.643-4.237 27.25-10.57 1.644 4.238-9.472 3.673c0.368 0.183 0.771 0.437 1.21 0.763 0.434 0.334 0.858 0.715 1.271 1.142 0.41 0.436 0.783 0.896 1.12 1.382 0.339 0.491 0.608 0.993 0.806 1.503v0c0.408 1.052 0.528 2.029 0.361 2.929-0.161 0.898-0.453 1.843-0.875 2.836v0c-0.239 0.553-0.58 1.043-1.024 1.469-0.437 0.424-0.922 0.8-1.453 1.127-0.538 0.329-1.091 0.618-1.66 0.867-0.575 0.251-1.146 0.487-1.712 0.706v0z" fill="#000000" data-fill-palette-color="primary"></path><path d="M32.697 205.64l-10.999 4.333-0.7 0.276-1.746-4.432 11.332-4.463c0.835-0.329 1.625-0.647 2.369-0.954 0.744-0.307 1.382-0.651 1.914-1.031 0.532-0.38 0.901-0.802 1.108-1.266 0.201-0.462 0.165-1.04-0.108-1.735v0c-0.048-0.123-0.151-0.331-0.31-0.623-0.158-0.293-0.374-0.626-0.649-1-0.275-0.374-0.638-0.763-1.088-1.168-0.444-0.407-0.959-0.779-1.546-1.115v0c-0.958 0.377-1.717 0.683-2.277 0.919-0.56 0.235-1.172 0.483-1.835 0.744v0l-11.7 4.608-1.76-4.468 11.331-4.463c0.835-0.329 1.628-0.641 2.377-0.936 0.749-0.295 1.39-0.633 1.921-1.012 0.532-0.38 0.898-0.808 1.101-1.285 0.196-0.475 0.164-1.043-0.098-1.707v0c-0.087-0.221-0.239-0.516-0.455-0.885-0.216-0.369-0.484-0.742-0.803-1.12-0.323-0.369-0.68-0.726-1.07-1.069-0.39-0.343-0.791-0.604-1.202-0.782v0l-15.863 6.249-1.775-4.505 20.811-8.197 1.586 4.026-1.949 1.32c0.807 0.392 1.641 0.978 2.502 1.76 0.864 0.788 1.504 1.71 1.92 2.767v0c0.464 1.179 0.594 2.263 0.387 3.252-0.204 0.995-0.655 2.085-1.352 3.268v0c0.631 0.234 1.245 0.531 1.842 0.892 0.596 0.361 1.138 0.765 1.626 1.211 0.488 0.446 0.912 0.911 1.272 1.393 0.363 0.489 0.641 0.978 0.835 1.47v0c0.329 0.835 0.473 1.687 0.431 2.554-0.041 0.868-0.26 1.699-0.657 2.494-0.396 0.795-0.961 1.514-1.693 2.157-0.724 0.647-1.578 1.164-2.561 1.551v0z" fill="#000000" data-fill-palette-color="primary"></path><path d="M53.248 232.375l-3.912 3.363-0.24 0.207c-0.16 0.138-0.387 0.35-0.68 0.636-0.293 0.287-0.574 0.598-0.843 0.934-0.269 0.335-0.48 0.682-0.633 1.04-0.148 0.354-0.168 0.675-0.059 0.965v0l-2.838 0.768c-0.224-0.26-0.4-0.587-0.53-0.981-0.134-0.399-0.207-0.828-0.219-1.287-0.012-0.46 0.035-0.901 0.142-1.323 0.107-0.423 0.277-0.822 0.512-1.197v0c-0.461 0.152-0.987 0.178-1.579 0.077-0.592-0.101-1.192-0.273-1.8-0.515-0.609-0.243-1.193-0.568-1.752-0.975-0.563-0.412-1.034-0.839-1.413-1.279v0c-0.585-0.681-1.059-1.414-1.421-2.2-0.362-0.786-0.549-1.591-0.562-2.415-0.013-0.825 0.193-1.659 0.618-2.502 0.433-0.843 1.131-1.677 2.091-2.503v0c0.921-0.792 1.885-1.281 2.891-1.467 1.016-0.185 2.001-0.158 2.957 0.083 0.955 0.241 1.874 0.661 2.755 1.261 0.881 0.6 1.669 1.303 2.362 2.109v0l2.194 2.553c0.981-0.843 1.719-1.565 2.214-2.164 0.495-0.599 0.776-1.137 0.845-1.614 0.064-0.473-0.02-0.914-0.251-1.325-0.231-0.411-0.553-0.856-0.966-1.337v0c-0.383-0.446-0.797-0.816-1.243-1.112-0.446-0.296-0.886-0.544-1.32-0.745-0.439-0.197-0.856-0.343-1.252-0.439-0.395-0.095-0.695-0.16-0.898-0.194v0l0.918-3.139c0.392 0.011 0.876 0.118 1.45 0.32 0.574 0.203 1.176 0.487 1.803 0.852 0.628 0.366 1.259 0.807 1.895 1.323 0.635 0.516 1.239 1.107 1.811 1.772v0c0.516 0.601 0.96 1.238 1.33 1.912 0.37 0.674 0.618 1.367 0.741 2.078 0.124 0.711 0.102 1.445-0.067 2.2-0.165 0.76-0.54 1.513-1.126 2.26v0c-0.58 0.743-1.204 1.444-1.872 2.105-0.668 0.661-1.352 1.293-2.053 1.895zM45.03 233.159l4.145-3.563-1.652-1.922c-0.344-0.4-0.748-0.789-1.211-1.165-0.459-0.372-0.962-0.653-1.509-0.845-0.547-0.191-1.134-0.235-1.759-0.132-0.626 0.103-1.259 0.429-1.9 0.98v0c-1.001 0.861-1.528 1.705-1.581 2.534-0.058 0.833 0.283 1.681 1.022 2.542v0c0.521 0.606 1.178 1.046 1.972 1.321 0.799 0.271 1.623 0.354 2.473 0.25z" fill="#000000" data-fill-palette-color="primary"></path><path d="M85.838 243.472l4.571 2.923-12.182 5.431 0.098 13.39-4.638-2.966 0.504-9.186-0.334-0.213-8.428 4.118-4.646-2.971 12.197-5.528-0.179-13.336 4.579 2.928-0.458 9.262 0.334 0.214z" fill="#000000" data-fill-palette-color="primary"></path><path d="M139.643 279.212l-0.076 0.788-4.819-0.465 1.17-12.123c0.086-0.894 0.129-1.751 0.13-2.573 0-0.822-0.114-1.563-0.343-2.222-0.228-0.659-0.574-1.193-1.039-1.602-0.465-0.403-1.144-0.648-2.038-0.734v0c-0.289-0.028-0.667-0.025-1.135 0.01-0.468 0.034-0.955 0.107-1.463 0.216-0.502 0.117-0.981 0.273-1.438 0.468-0.456 0.195-0.805 0.439-1.045 0.735v0l-0.023 0.236-0.008 0.079-0.846 8.762-0.008 0.078-0.755 7.816-4.78-0.462 2.963-30.67 4.78 0.462-1.029 10.653c0.343-0.259 0.773-0.516 1.288-0.77 0.515-0.255 1.077-0.473 1.684-0.653 0.601-0.181 1.211-0.314 1.829-0.401 0.618-0.086 1.217-0.101 1.795-0.045v0c1.183 0.114 2.157 0.46 2.924 1.038 0.773 0.579 1.529 1.302 2.267 2.169v0c0.404 0.49 0.702 1.043 0.895 1.658 0.192 0.622 0.316 1.261 0.372 1.916 0.056 0.655 0.066 1.313 0.028 1.972-0.037 0.66-0.086 1.305-0.147 1.936v0z" fill="#000000" data-fill-palette-color="primary"></path><path d="M164.333 254.116v0c1.762-0.346 3.386-0.295 4.873 0.153 1.494 0.447 2.79 1.174 3.889 2.183 1.101 1.015 1.99 2.256 2.669 3.724 0.678 1.468 1.064 3.057 1.157 4.768v0l-15.254 2.994c0.163 0.829 0.468 1.563 0.917 2.201 0.448 0.639 0.987 1.158 1.617 1.559 0.63 0.401 1.346 0.671 2.147 0.81 0.794 0.14 1.619 0.126 2.474-0.042v0c0.285-0.056 0.635-0.158 1.05-0.307 0.415-0.149 0.845-0.354 1.291-0.616 0.446-0.262 0.884-0.57 1.312-0.924 0.435-0.354 0.798-0.749 1.09-1.182v0l2.223 2.278c-0.647 1.23-1.49 2.23-2.529 2.998-1.033 0.768-2.431 1.325-4.193 1.671v0c-1.431 0.281-2.826 0.252-4.184-0.087-1.358-0.339-2.577-0.927-3.656-1.765-1.08-0.844-2.015-1.888-2.804-3.132-0.783-1.246-1.327-2.649-1.634-4.21v0c-0.3-1.529-0.324-3.024-0.073-4.486 0.258-1.463 0.721-2.788 1.389-3.976 0.67-1.181 1.543-2.18 2.621-2.996 1.077-0.817 2.28-1.356 3.608-1.616zM161.15 264.477l10.745-2.109c-0.137-0.7-0.405-1.36-0.802-1.981-0.391-0.623-0.867-1.162-1.427-1.617-0.56-0.455-1.197-0.784-1.91-0.988-0.711-0.197-1.445-0.234-2.201-0.112v0c-0.803 0.158-1.511 0.458-2.124 0.901-0.618 0.451-1.122 0.984-1.512 1.598-0.391 0.615-0.652 1.305-0.785 2.071-0.132 0.766-0.127 1.512 0.016 2.237z" fill="#000000" data-fill-palette-color="primary"></path><path d="M207.012 248.105l2.408 4.562 0.148 0.28c0.099 0.187 0.255 0.455 0.469 0.805 0.214 0.35 0.455 0.693 0.723 1.029 0.267 0.337 0.558 0.62 0.873 0.849 0.312 0.223 0.621 0.314 0.927 0.272v0l0.118 2.938c-0.304 0.16-0.662 0.26-1.074 0.299-0.418 0.042-0.853 0.017-1.304-0.074-0.451-0.09-0.87-0.235-1.258-0.433-0.388-0.198-0.739-0.453-1.053-0.765v0c0.046 0.483-0.046 1.002-0.276 1.557-0.23 0.554-0.531 1.101-0.903 1.64-0.372 0.54-0.819 1.037-1.34 1.492-0.527 0.457-1.048 0.822-1.562 1.092v0c-0.794 0.419-1.614 0.718-2.46 0.896-0.846 0.178-1.673 0.182-2.48 0.01-0.807-0.171-1.574-0.557-2.302-1.158-0.725-0.61-1.383-1.475-1.975-2.596v0c-0.567-1.074-0.829-2.122-0.787-3.145 0.045-1.031 0.291-1.986 0.739-2.864 0.447-0.878 1.061-1.68 1.842-2.406 0.781-0.726 1.642-1.337 2.582-1.833v0l2.977-1.571c-0.604-1.144-1.143-2.024-1.617-2.64-0.474-0.616-0.936-1.01-1.386-1.183-0.447-0.167-0.896-0.184-1.347-0.05-0.452 0.134-0.958 0.349-1.519 0.645v0c-0.52 0.274-0.973 0.596-1.36 0.964-0.388 0.369-0.728 0.742-1.021 1.121-0.29 0.384-0.525 0.759-0.706 1.123-0.181 0.364-0.311 0.642-0.389 0.832v0l-2.856-1.593c0.098-0.38 0.31-0.828 0.634-1.343 0.325-0.515 0.736-1.038 1.232-1.568 0.496-0.531 1.066-1.048 1.711-1.553 0.644-0.504 1.355-0.961 2.131-1.371v0c0.701-0.37 1.42-0.66 2.16-0.871 0.739-0.211 1.47-0.298 2.191-0.261 0.721 0.037 1.431 0.222 2.13 0.555 0.704 0.33 1.355 0.863 1.953 1.6v0c0.595 0.731 1.14 1.496 1.636 2.294 0.496 0.798 0.96 1.606 1.391 2.423zM205.947 256.291l-2.551-4.833-2.241 1.183c-0.467 0.246-0.936 0.554-1.406 0.921-0.464 0.365-0.851 0.792-1.159 1.283-0.308 0.491-0.482 1.053-0.521 1.686-0.039 0.633 0.138 1.323 0.533 2.07v0c0.616 1.167 1.323 1.869 2.119 2.106 0.8 0.242 1.701 0.098 2.706-0.432v0c0.706-0.373 1.282-0.916 1.726-1.628 0.442-0.718 0.707-1.504 0.794-2.356z" fill="#000000" data-fill-palette-color="primary"></path><path d="M212.705 219.705l16.016 17.862c0.599 0.668 1.159 1.115 1.679 1.34 0.521 0.225 1.024 0.292 1.511 0.201 0.482-0.095 0.953-0.296 1.414-0.603 0.456-0.302 0.92-0.665 1.392-1.088v0l1.956 2.182c-0.22 0.268-0.459 0.536-0.717 0.802v0c-0.199 0.214-0.443 0.46-0.734 0.739-0.286 0.274-0.577 0.544-0.872 0.808v0c-0.295 0.264-0.599 0.519-0.911 0.763-0.313 0.245-0.604 0.453-0.875 0.626v0c-0.792 0.462-1.577 0.634-2.356 0.516-0.779-0.117-1.518-0.368-2.217-0.752-0.708-0.385-1.325-0.82-1.85-1.306-0.525-0.487-0.92-0.877-1.184-1.173v0l-0.317-0.354-15.54-17.331z" fill="#000000" data-fill-palette-color="primary"></path><path d="M236.854 208.959l10.018 7.201c0.729 0.524 1.366 0.836 1.912 0.936 0.546 0.1 1.058 0.049 1.536-0.152 0.469-0.2 0.888-0.5 1.258-0.901 0.37-0.401 0.732-0.848 1.086-1.341v0l2.379 1.71c-0.157 0.31-0.326 0.611-0.504 0.906v0c-0.148 0.251-0.336 0.547-0.565 0.887-0.228 0.34-0.458 0.671-0.689 0.992v0c-0.235 0.327-0.483 0.649-0.743 0.966-0.26 0.317-0.497 0.578-0.709 0.783v0c-0.653 0.636-1.377 0.977-2.173 1.022-0.797 0.045-1.574-0.05-2.331-0.285-0.763-0.239-1.453-0.54-2.071-0.903-0.617-0.362-1.087-0.659-1.408-0.891v0l-9.793-7.038-1.716 2.387-2.637-1.895 1.716-2.388-5.153-3.704 2.797-3.891 5.153 3.704 2.087-2.902 2.637 1.895z" fill="#000000" data-fill-palette-color="primary"></path><path d="M270.043 181.524l0.737 0.291-1.779 4.503-11.327-4.473c-0.835-0.33-1.648-0.608-2.438-0.835-0.79-0.227-1.534-0.322-2.229-0.285-0.696 0.037-1.305 0.223-1.827 0.556-0.516 0.336-0.939 0.921-1.269 1.756v0c-0.107 0.27-0.208 0.635-0.304 1.094-0.096 0.459-0.161 0.948-0.196 1.466-0.026 0.515-0.008 1.019 0.053 1.511 0.061 0.492 0.2 0.895 0.417 1.208v0l0.221 0.087 0.074 0.029 8.187 3.234 0.073 0.029 7.303 2.884-1.764 4.466-28.658-11.318 1.764-4.466 9.955 3.931c-0.154-0.401-0.282-0.885-0.386-1.451-0.103-0.566-0.157-1.166-0.162-1.799-0.008-0.628 0.033-1.25 0.121-1.869 0.088-0.618 0.239-1.197 0.452-1.737v0c0.436-1.105 1.038-1.946 1.805-2.523 0.77-0.583 1.673-1.11 2.711-1.581v0c0.582-0.253 1.196-0.386 1.84-0.401 0.651-0.013 1.299 0.045 1.944 0.172 0.645 0.127 1.28 0.3 1.904 0.517 0.624 0.218 1.23 0.443 1.819 0.676v0z" fill="#000000" data-fill-palette-color="primary"></path><path d="M4.077 143.042c0-6.166 4.999-11.165 11.165-11.165 6.166 0 11.165 4.999 11.166 11.165 0 6.166-4.999 11.165-11.166 11.165-6.166 0-11.165-4.999-11.165-11.165z" fill="#000000" data-fill-palette-color="primary"></path><path d="M253.592 143.042c0-6.166 4.999-11.165 11.166-11.165 6.166 0 11.165 4.999 11.165 11.165 0 6.166-4.999 11.165-11.165 11.165-6.166 0-11.165-4.999-11.166-11.165z" fill="#000000" data-fill-palette-color="primary"></path></g><g id="text-1"></g></svg></g></svg></g></svg></g></svg></g><defs></defs></svg><rect width="280" height="280" fill="none" stroke="none" visibility="hidden"></rect></g></svg></g></svg>