<svg xmlns="http://www.w3.org/2000/svg" version="1.1" xmlns:xlink="http://www.w3.org/1999/xlink" xmlns:svgjs="http://svgjs.dev/svgjs" width="2000" height="580" viewBox="0 0 2000 580"><g transform="matrix(1,0,0,1,-1.2121212121212466,3.3930618500350533)"><svg viewBox="0 0 396 115" data-background-color="#581381" preserveAspectRatio="xMidYMid meet" height="580" width="2000" xmlns="http://www.w3.org/2000/svg" xmlns:xlink="http://www.w3.org/1999/xlink"><g id="tight-bounds" transform="matrix(1,0,0,1,0.2400000000000091,-0.07034788737749409)"><svg viewBox="0 0 395.52 115.14069577475502" height="115.14069577475502" width="395.52"><g><svg viewBox="0 0 497.41317148579276 144.80304068669528" height="115.14069577475502" width="395.52"><g transform="matrix(1,0,0,1,101.89317148579278,44.74624137339056)"><svg viewBox="0 0 395.52 55.31055793991416" height="55.31055793991416" width="395.52"><g id="textblocktransform"><svg viewBox="0 0 395.52 55.31055793991416" height="55.31055793991416" width="395.52" id="textblock"><g><svg viewBox="0 0 395.52 55.31055793991416" height="55.31055793991416" width="395.52"><g transform="matrix(1,0,0,1,0,0)"><svg width="395.52" viewBox="4.2 -37.94 273.02000000000004 38.18" height="55.31055793991416" data-palette-color="#f5a1e8"><path d="M40.58-15.48L40.58-0.93 40.58 0 34.72 0 34.72-14.99Q34.72-16.65 34.69-18.14 34.67-19.63 34.38-20.8 34.08-21.97 33.42-22.63 32.76-23.29 31.4-23.29L31.4-23.29Q31.15-23.29 30.54-23.22 29.93-23.14 29.1-22.92 28.27-22.71 27.27-22.22 26.27-21.73 25.29-20.95L25.29-20.95Q25.29-19.04 25.32-17.92 25.34-16.8 25.34-15.48L25.34-15.48 25.34 0 19.43 0 19.43-14.99Q19.43-16.65 19.43-18.14 19.43-19.63 19.14-20.8 18.85-21.97 18.16-22.63 17.48-23.29 16.16-23.29L16.16-23.29Q15.72-23.29 14.94-23.17 14.16-23.05 13.31-22.75 12.45-22.46 11.6-22.02 10.74-21.58 10.16-21L10.16-21 10.16 0 4.2 0 4.2-27.54 9.52-27.54 10.16-24.71Q11.38-25.83 13.31-26.78 15.23-27.73 17.33-27.73L17.33-27.73Q19.68-27.73 21.24-26.71 22.8-25.68 24.37-23.68L24.37-23.68Q25.2-24.61 26.22-25.39 27.25-26.17 28.34-26.71 29.44-27.25 30.52-27.54 31.59-27.83 32.57-27.83L32.57-27.83Q34.23-27.83 35.69-27.17 37.16-26.51 38.26-25.29 39.36-24.07 39.97-22.39 40.58-20.7 40.58-18.75L40.58-18.75 40.58-15.48ZM68.94-14.89L68.94-8.54 68.94-8.15Q68.94-7.76 68.99-7.01 69.04-6.25 69.19-5.47 69.33-4.69 69.65-4.05 69.97-3.42 70.51-3.22L70.51-3.22 68.94 0.05Q68.31 0.05 67.6-0.24 66.89-0.54 66.23-1.07 65.57-1.61 65.11-2.27 64.65-2.93 64.4-3.71L64.4-3.71Q64.06-2.88 63.21-2.17 62.35-1.46 61.28-0.9 60.2-0.34 58.96-0.05 57.71 0.24 56.64 0.24L56.64 0.24Q54.98 0.24 53.44-0.2 51.9-0.63 50.73-1.61 49.56-2.59 48.9-4.2 48.24-5.81 48.24-8.15L48.24-8.15Q48.24-10.4 49.19-12.04 50.14-13.67 51.63-14.72 53.12-15.77 55.03-16.28 56.93-16.8 58.88-16.8L58.88-16.8 63.03-16.8Q63.03-19.19 62.79-20.61 62.55-22.02 61.96-22.68 61.37-23.34 60.52-23.51 59.67-23.68 58.49-23.68L58.49-23.68Q57.42-23.68 56.47-23.41 55.52-23.14 54.71-22.78 53.9-22.41 53.29-21.97 52.68-21.53 52.39-21.29L52.39-21.29 50.19-24.66Q50.68-25.2 51.66-25.76 52.63-26.32 53.9-26.76 55.17-27.2 56.66-27.47 58.15-27.73 59.76-27.73L59.76-27.73Q61.23-27.73 62.62-27.44 64.01-27.15 65.16-26.46 66.31-25.78 67.16-24.63 68.02-23.49 68.36-21.78L68.36-21.78Q68.7-20.07 68.82-18.33 68.94-16.6 68.94-14.89L68.94-14.89ZM63.08-6.59L63.08-13.33 59.96-13.33Q58.98-13.33 57.91-13.13 56.83-12.94 55.91-12.4 54.98-11.87 54.37-10.86 53.76-9.86 53.76-8.3L53.76-8.3Q53.76-5.86 54.86-4.79 55.95-3.71 58.05-3.71L58.05-3.71Q59.52-3.71 60.86-4.49 62.2-5.27 63.08-6.59L63.08-6.59ZM96.87-27.54L103.56-27.54 94.53-13.82 103.51 0 96.72 0 91.16-9.86 90.67-9.86 84.66 0 77.88 0 86.86-13.82 77.83-27.54 84.52-27.54 90.18-17.63 90.67-17.63 96.87-27.54ZM147.65-0.98L147.65 0 141.69 0 141.69-14.99Q141.69-16.65 141.54-18.16 141.4-19.68 140.86-20.85 140.32-22.02 139.39-22.68 138.47-23.34 136.81-23.34L136.81-23.34Q136.27-23.34 135.41-23.19 134.56-23.05 133.66-22.75 132.75-22.46 131.95-22.02 131.14-21.58 130.75-21L130.75-21 130.75-20.7 130.75-20.61 130.75-9.77 130.75-9.67 130.75 0 124.84 0 124.84-37.94 130.75-37.94 130.75-24.76Q131.34-25.29 132.24-25.85 133.14-26.42 134.22-26.86 135.29-27.29 136.42-27.56 137.54-27.83 138.61-27.83L138.61-27.83Q140.81-27.83 142.32-26.9 143.84-25.98 145.35-24.51L145.35-24.51Q146.18-23.68 146.65-22.58 147.11-21.48 147.33-20.29 147.55-19.09 147.6-17.87 147.65-16.65 147.65-15.48L147.65-15.48 147.65-0.98ZM166.1-27.83L166.1-27.83Q169.42-27.83 171.96-26.49 174.5-25.15 176.13-22.92 177.77-20.7 178.48-17.8 179.19-14.89 178.75-11.77L178.75-11.77 159.61-11.77Q159.61-10.21 160.19-8.89 160.78-7.57 161.78-6.62 162.78-5.66 164.17-5.13 165.56-4.59 167.18-4.59L167.18-4.59Q167.71-4.59 168.52-4.71 169.32-4.83 170.23-5.15 171.13-5.47 172.03-5.96 172.94-6.45 173.62-7.13L173.62-7.13 175.77-3.86Q174.16-1.86 172.01-0.83 169.86 0.2 166.54 0.2L166.54 0.2Q163.85 0.2 161.51-0.9 159.17-2 157.51-3.91 155.85-5.81 154.87-8.35 153.89-10.89 153.89-13.82L153.89-13.82Q153.89-16.7 154.87-19.26 155.85-21.83 157.48-23.73 159.12-25.63 161.36-26.73 163.61-27.83 166.1-27.83ZM159.8-16.06L173.28-16.06Q173.28-17.38 172.79-18.65 172.3-19.92 171.45-20.95 170.59-21.97 169.37-22.58 168.15-23.19 166.74-23.24L166.74-23.24Q165.22-23.24 163.95-22.66 162.68-22.07 161.76-21.09 160.83-20.12 160.31-18.77 159.8-17.43 159.8-16.06L159.8-16.06ZM206.97-14.89L206.97-8.54 206.97-8.15Q206.97-7.76 207.02-7.01 207.07-6.25 207.21-5.47 207.36-4.69 207.68-4.05 207.99-3.42 208.53-3.22L208.53-3.22 206.97 0.05Q206.33 0.05 205.62-0.24 204.92-0.54 204.26-1.07 203.6-1.61 203.13-2.27 202.67-2.93 202.43-3.71L202.43-3.71Q202.08-2.88 201.23-2.17 200.38-1.46 199.3-0.9 198.23-0.34 196.98-0.05 195.74 0.24 194.66 0.24L194.66 0.24Q193 0.24 191.46-0.2 189.93-0.63 188.75-1.61 187.58-2.59 186.92-4.2 186.26-5.81 186.26-8.15L186.26-8.15Q186.26-10.4 187.22-12.04 188.17-13.67 189.66-14.72 191.15-15.77 193.05-16.28 194.96-16.8 196.91-16.8L196.91-16.8 201.06-16.8Q201.06-19.19 200.82-20.61 200.57-22.02 199.99-22.68 199.4-23.34 198.54-23.51 197.69-23.68 196.52-23.68L196.52-23.68Q195.44-23.68 194.49-23.41 193.54-23.14 192.73-22.78 191.93-22.41 191.32-21.97 190.71-21.53 190.41-21.29L190.41-21.29 188.22-24.66Q188.71-25.2 189.68-25.76 190.66-26.32 191.93-26.76 193.2-27.2 194.69-27.47 196.18-27.73 197.79-27.73L197.79-27.73Q199.25-27.73 200.64-27.44 202.04-27.15 203.18-26.46 204.33-25.78 205.19-24.63 206.04-23.49 206.38-21.78L206.38-21.78Q206.72-20.07 206.85-18.33 206.97-16.6 206.97-14.89L206.97-14.89ZM201.11-6.59L201.11-13.33 197.98-13.33Q197.01-13.33 195.93-13.13 194.86-12.94 193.93-12.4 193-11.87 192.39-10.86 191.78-9.86 191.78-8.3L191.78-8.3Q191.78-5.86 192.88-4.79 193.98-3.71 196.08-3.71L196.08-3.71Q197.54-3.71 198.89-4.49 200.23-5.27 201.11-6.59L201.11-6.59ZM222.15-37.94L222.15-8.4Q222.15-6.74 222.59-5.79 223.03-4.83 223.81-4.37 224.59-3.91 225.59-3.76 226.59-3.61 227.77-3.61L227.77-3.61 227.77 0Q227.13 0.1 226.45 0.15L226.45 0.15Q225.91 0.2 225.18 0.22 224.45 0.24 223.71 0.24L223.71 0.24Q222.98 0.24 222.25 0.2 221.52 0.15 220.93 0.05L220.93 0.05Q219.27-0.29 218.34-1.42 217.41-2.54 216.93-3.93 216.44-5.32 216.32-6.64 216.19-7.96 216.19-8.69L216.19-8.69 216.19-9.28 216.19-37.94 222.15-37.94ZM241.87-23.54L241.87-8.35Q241.87-6.69 242.31-5.76 242.75-4.83 243.56-4.35 244.36-3.86 245.37-3.74 246.37-3.61 247.49-3.61L247.49-3.61 247.49 0Q246.86 0.1 246.22 0.15L246.22 0.15Q245.68 0.2 244.93 0.22 244.17 0.24 243.44 0.24L243.44 0.24Q242.7 0.24 241.95 0.2 241.19 0.15 240.65 0.05L240.65 0.05Q238.99-0.24 238.07-1.39 237.14-2.54 236.67-3.93 236.21-5.32 236.09-6.64 235.97-7.96 235.97-8.69L235.97-8.69 235.97-23.54 232.35-23.54 232.35-27.54 235.97-27.54 235.97-35.35 241.87-35.35 241.87-27.54 246.27-27.54 246.27-23.54 241.87-23.54ZM277.22-0.98L277.22 0 271.27 0 271.27-14.99Q271.27-16.65 271.12-18.16 270.97-19.68 270.44-20.85 269.9-22.02 268.97-22.68 268.04-23.34 266.38-23.34L266.38-23.34Q265.85-23.34 264.99-23.19 264.14-23.05 263.23-22.75 262.33-22.46 261.53-22.02 260.72-21.58 260.33-21L260.33-21 260.33-20.7 260.33-20.61 260.33-9.77 260.33-9.67 260.33 0 254.42 0 254.42-37.94 260.33-37.94 260.33-24.76Q260.92-25.29 261.82-25.85 262.72-26.42 263.8-26.86 264.87-27.29 265.99-27.56 267.12-27.83 268.19-27.83L268.19-27.83Q270.39-27.83 271.9-26.9 273.42-25.98 274.93-24.51L274.93-24.51Q275.76-23.68 276.22-22.58 276.69-21.48 276.91-20.29 277.13-19.09 277.17-17.87 277.22-16.65 277.22-15.48L277.22-15.48 277.22-0.98Z" opacity="1" transform="matrix(1,0,0,1,0,0)" fill="#000000" class="wordmark-text-0" data-fill-palette-color="primary" id="text-0"></path></svg></g></svg></g></svg></g></svg></g><g><svg viewBox="0 0 88.8356762095696 144.80304068669528" height="144.80304068669528" width="88.8356762095696"><g><svg xmlns="http://www.w3.org/2000/svg" xml:space="preserve" viewBox="0 -1.2194956843220825e-7 100 163.00100012194957" id="icon-0" width="88.8356762095696" height="144.80304068669528" x="0" y="0" class="icon-icon-0" data-fill-palette-color="accent"><path d="M83.008 13.74c1.966-0.307 3.475-1.993 3.475-4.044V4.108A4.11 4.11 0 0 0 82.375 0h-64.75a4.107 4.107 0 0 0-4.108 4.108v5.587a4.1 4.1 0 0 0 3.474 4.044C8.418 19.585 0 30.177 0 37.261v108.147c0 10.228 8.291 17.593 18.518 17.593h62.963c10.228 0 18.519-7.365 18.519-17.593V37.261c0-7.084-8.418-17.676-16.992-23.521M67.082 36.794h5.397v-5.397h5.811v5.397h5.397v5.811H78.29v5.396h-5.811v-5.396h-5.397z m16.621 79.171a4.63 4.63 0 0 1-4.63 4.629H20.926a4.63 4.63 0 0 1-4.63-4.629v-49.26a4.63 4.63 0 0 1 4.63-4.629h58.147a4.63 4.63 0 0 1 4.63 4.629z" fill="#000000" data-fill-palette-color="accent"></path><path d="M72.963 72.446H27.037a3.333 3.333 0 1 0 0 6.666h45.926a3.333 3.333 0 1 0 0-6.666M72.963 88.557H27.037a3.333 3.333 0 0 0 0 6.667h45.926a3.334 3.334 0 0 0 0-6.667M72.963 103.558H45.554a3.333 3.333 0 0 0 0 6.666h27.409a3.333 3.333 0 1 0 0-6.666" fill="#000000" data-fill-palette-color="accent"></path></svg></g></svg></g></svg></g><defs></defs></svg><rect width="395.52" height="115.14069577475502" fill="none" stroke="none" visibility="hidden"></rect></g></svg></g></svg>