<svg width="61" height="60" viewBox="0 0 61 60" fill="none" xmlns="http://www.w3.org/2000/svg">
<path d="M28.3247 44.5588C28.3247 44.9118 28.6776 45.2647 29.0306 45.2647C29.3835 45.2647 29.7364 45 29.7364 44.5588C29.7364 44.1177 29.3835 43.853 29.0306 43.853C28.5894 43.853 28.3247 44.2059 28.3247 44.5588Z" fill="#000D44"/>
<path d="M25.0601 22.853C25.8543 22.853 26.5601 22.1471 26.5601 21.353C26.5601 20.5588 25.8543 19.853 25.0601 19.853C24.266 19.853 23.5601 20.5588 23.5601 21.353C23.5601 22.1471 24.1778 22.853 25.0601 22.853Z" fill="#000D44"/>
<path d="M15.354 22.853C16.1481 22.853 16.854 22.1471 16.854 21.353C16.854 20.5588 16.1481 19.853 15.354 19.853C14.5599 19.853 13.854 20.5588 13.854 21.353C13.854 22.1471 14.5599 22.853 15.354 22.853Z" fill="#000D44"/>
<path d="M17.8248 28.2353C18.5307 28.6765 19.3248 28.8529 20.119 28.8529C20.9131 28.8529 21.7072 28.6765 22.5013 28.2353C22.9425 27.9706 23.119 27.4412 22.9425 27.0882C22.6778 26.647 22.1484 26.4706 21.7954 26.647C20.6484 27.1765 19.6778 27.2647 18.7954 26.647C18.3543 26.3823 17.8248 26.5588 17.5601 26.9117C17.2954 27.4412 17.4719 27.9706 17.8248 28.2353Z" fill="#000D44"/>
<path d="M20.207 25.0588C20.7364 25.0588 21.0894 24.6177 21.0894 24.1765V22.4118C21.0894 21.9706 20.7364 21.5294 20.207 21.5294C19.7659 21.5294 19.3247 21.9706 19.3247 22.4118V24.1765C19.3247 24.7059 19.7659 25.0588 20.207 25.0588Z" fill="#000D44"/>
<path d="M54.7952 28.2354H52.3247V27.5295C52.3247 27.0001 51.8835 26.6472 51.4423 26.6472H41.4717C40.9423 26.6472 40.5894 27.0883 40.5894 27.5295V28.2354H38.1188C36.1776 28.2354 34.5894 29.8236 34.5894 31.7648V37.2354C33.9717 36.6178 33.2658 36.0001 32.4717 35.4707C32.0305 32.7354 30.5305 30.706 28.4129 29.5589C29.6482 28.1472 30.5305 26.4707 30.8835 24.5295C33.0894 24.1766 34.6776 22.3236 34.6776 20.0295C34.6776 18.4413 33.8835 17.0295 32.6482 16.2354C32.6482 16.1472 32.6482 16.1472 32.6482 16.0589V8.38242C32.6482 3.79418 26.4717 1.76477 20.2952 1.76477C14.1188 1.76477 7.94232 3.79418 7.94232 8.38242V16.2354V16.4119C6.70703 17.206 5.91291 18.6178 5.91291 20.206C5.91291 22.4119 7.50114 24.353 9.70703 24.706C10.06 26.5589 10.9423 28.2354 12.0894 29.6472C10.3247 30.8825 9.17761 32.7354 8.82467 35.206C4.85409 37.3236 2.20703 41.4707 2.20703 46.3236V53.7354C2.20703 56.206 4.23644 58.2354 6.70703 58.2354H33.6188C34.5011 58.2354 35.2952 57.9707 36.0011 57.5295C36.5305 57.9707 37.3247 58.1472 38.0305 58.1472H54.707C56.6482 58.1472 58.2364 56.5589 58.2364 54.6178V31.853C58.3247 29.8236 56.7364 28.2354 54.7952 28.2354ZM56.5599 54.706C56.5599 55.6766 55.7658 56.4707 54.7952 56.4707H38.1188C37.1482 56.4707 36.3541 55.6766 36.3541 54.706C36.3541 35.9119 36.3541 50.8236 36.3541 31.9413C36.3541 30.9707 37.1482 30.1766 38.1188 30.1766H40.5894V30.706C40.5894 31.2354 41.0305 31.5883 41.4717 31.5883H51.3541C51.8835 31.5883 52.2364 31.2354 52.2364 30.706V30.0001H54.707C55.6776 30.0001 56.4717 30.7942 56.4717 31.7648V54.706H56.5599ZM3.97173 46.3236C3.97173 42.5295 5.82467 39.2648 8.73644 37.2354C8.73644 37.853 8.82467 38.5589 9.00114 39.2648C7.05997 40.853 6.26585 44.9119 7.05997 49.7648C7.1482 50.206 7.41291 50.6472 7.76585 50.9119C8.03056 51.0883 8.3835 51.1766 8.73644 51.1766H8.82467V51.706H3.97173V46.3236ZM11.207 17.206H29.207V23.1178C29.0305 25.4119 28.0599 27.4413 26.5599 28.9413C24.9717 30.5295 22.6776 31.5883 20.207 31.5883C17.6482 31.5883 15.2658 30.4413 13.5894 28.6766C12.2658 27.1766 11.3835 25.3236 11.207 23.206V17.206ZM18.1776 33.0883C19.4129 33.353 20.7364 33.353 21.8835 33.1766C21.8835 33.2648 21.8835 34.3236 21.8835 34.2354C21.8835 34.7648 22.2364 35.1177 22.7658 35.1177H24.0894L20.0305 39.4413L15.9717 35.1177H17.2952C17.8247 35.1177 18.1776 34.7648 18.1776 34.2354C18.1776 34.1472 18.1776 33.0001 18.1776 33.0883ZM10.5011 52.5883V51.6178H10.5894H10.9423C11.9129 51.4413 12.5305 50.4707 12.3541 49.5001C12.1776 48.5295 11.207 47.9119 10.2364 48.0883C9.53056 48.2648 9.00114 48.7942 8.91291 49.3236H8.73644C8.29526 46.4119 8.29526 40.7648 10.6776 40.2354C12.2658 39.8825 14.8247 42.8825 16.1482 47.7354H15.9717C15.6188 47.2942 15.0011 47.0295 14.2952 47.206C13.3247 47.4707 12.707 48.353 12.8835 49.3236C13.0599 50.206 13.8541 50.7354 14.6482 50.7354C15.4423 50.7354 16.0599 50.2942 16.3247 49.5001H16.5011C16.9423 49.4119 17.3835 49.1472 17.6482 48.706C17.9129 48.2648 18.0011 47.8236 17.8247 47.3825C16.4129 41.8236 13.4129 38.206 10.6776 38.4707C10.5011 37.6766 10.5011 36.8825 10.5011 36.1766C11.4717 35.7354 12.6188 35.3825 13.7658 35.206L19.5011 41.3825C19.8541 41.7354 20.4717 41.7354 20.8247 41.3825L26.5599 35.206C28.1482 35.3825 29.5599 35.8236 30.8835 36.6177C30.9717 37.9413 30.7952 39.4413 30.3541 41.1177C30.0011 41.0295 29.5599 40.9413 29.1188 40.9413C27.0894 40.9413 25.4129 42.6177 25.4129 44.6472C25.4129 46.6766 27.0894 48.353 29.1188 48.353C31.1482 48.353 32.8247 46.6766 32.8247 44.6472C32.8247 43.6766 32.4717 42.7942 31.8541 42.1766C32.2952 40.5883 32.5599 39.1766 32.6482 37.853C33.4423 38.4707 34.0599 39.2648 34.6776 40.0589V51.6178H31.8541V50.7354C31.8541 50.206 31.5011 49.853 30.9717 49.853C30.5305 49.853 30.0894 50.206 30.0894 50.7354V52.5001V52.5883V56.4707H10.6776V52.5883H10.5011ZM30.9717 44.5589C30.9717 45.6178 30.0894 46.5001 29.0305 46.5001C27.9717 46.5001 27.0894 45.6178 27.0894 44.5589C27.0894 43.5001 27.9717 42.6177 29.0305 42.6177C30.0894 42.6177 30.9717 43.5001 30.9717 44.5589ZM30.3541 34.4119C28.1482 33.4413 26.207 33.353 23.7364 33.4413V32.8236C24.9717 32.3825 26.0305 31.7648 27.0011 31.0589C28.5894 31.5883 29.7364 32.7354 30.3541 34.4119ZM16.4129 9.0883C16.2364 9.00006 16.1482 8.73536 16.2364 8.47065L16.6776 7.67653C16.7658 7.50006 17.0305 7.41183 17.2952 7.50006L18.9717 8.47065V6.61771C18.9717 6.353 19.1482 6.17653 19.4129 6.17653H20.2952C20.5599 6.17653 20.7364 6.353 20.7364 6.61771V8.47065L22.3247 7.5883C22.5011 7.50006 22.7658 7.50006 22.9423 7.76477L23.3835 8.55889C23.4717 8.73536 23.4717 9.00006 23.207 9.17653L21.6188 10.1472L23.207 11.1178C23.3835 11.206 23.4717 11.4707 23.3835 11.7354L22.9423 12.353C22.8541 12.5295 22.5894 12.6178 22.3247 12.5295L20.7364 11.6472V13.5001C20.7364 13.7648 20.5599 13.9413 20.2952 13.9413H19.4129C19.1482 13.9413 18.9717 13.7648 18.9717 13.5001V11.5589L17.2952 12.5295C17.1188 12.6178 16.8541 12.5295 16.6776 12.353L16.2364 11.5589C16.1482 11.3825 16.1482 11.1178 16.4129 10.9413L18.0011 9.97065L16.4129 9.0883ZM13.3247 30.7942C14.207 31.5883 15.2658 32.206 16.4129 32.5589V33.353C14.0305 33.1766 12.4423 33.5295 10.7658 34.1472C11.207 32.8236 12.0894 31.5883 13.3247 30.7942Z" fill="#000D44"/>
<path d="M42.354 35.7353H50.5599C51.0893 35.7353 51.4422 35.2941 51.4422 34.8529C51.4422 34.4118 51.0893 33.9706 50.5599 33.9706H42.354C41.8246 33.9706 41.4717 34.4118 41.4717 34.8529C41.4717 35.2941 41.8246 35.7353 42.354 35.7353Z" fill="#000D44"/>
<path d="M53.3837 38.4706H39.4425C38.9131 38.4706 38.5601 38.9118 38.5601 39.3529C38.5601 39.8823 38.9131 40.2353 39.4425 40.2353H53.4719C54.0013 40.2353 54.3542 39.8823 54.3542 39.3529C54.266 38.8235 53.9131 38.4706 53.3837 38.4706Z" fill="#000D44"/>
<path d="M53.3837 42.9706H39.4425C38.9131 42.9706 38.5601 43.4118 38.5601 43.8529C38.5601 44.3823 38.9131 44.7353 39.4425 44.7353H53.4719C54.0013 44.7353 54.3542 44.3823 54.3542 43.8529C54.266 43.3235 53.9131 42.9706 53.3837 42.9706Z" fill="#000D44"/>
<path d="M49.1481 49.5882H47.5599V48C47.5599 47.647 47.2952 47.3823 46.9422 47.3823H45.8834C45.5305 47.3823 45.1775 47.647 45.1775 48V49.5882H43.6775C43.3246 49.5882 42.9717 49.8529 42.9717 50.2059V51.2647C42.9717 51.6176 43.2364 51.9706 43.6775 51.9706H45.2658V53.4706C45.2658 53.8235 45.5305 54.0882 45.9717 54.0882H47.0305C47.3834 54.0882 47.6481 53.8235 47.6481 53.4706V51.9706H49.2364C49.5893 51.9706 49.854 51.7059 49.854 51.2647V50.2941C49.7658 49.8529 49.5011 49.5882 49.1481 49.5882Z" fill="#000D44"/>
<path d="M38.7362 20.9117C38.4715 21.8823 39.3539 22.7646 40.2362 22.4117L43.6774 21.2646C44.9127 21.8823 46.3245 22.147 47.7362 22.147C52.9421 22.147 57.0892 17.9999 57.0892 12.794C57.0892 7.76466 52.9421 3.6176 48.0009 3.44113C42.6186 3.26466 38.3833 7.58819 38.3833 12.794C38.3833 14.5587 38.9127 16.2352 39.795 17.647L38.7362 20.9117ZM52.148 11.7352C52.8539 11.7352 53.3833 12.2646 53.3833 12.9705C53.3833 13.6764 52.8539 14.2058 52.148 14.2058C51.4421 14.2058 50.9127 13.6764 50.9127 12.9705C50.9127 12.3529 51.4421 11.7352 52.148 11.7352ZM47.8245 11.7352C48.5303 11.7352 49.0597 12.2646 49.0597 12.9705C49.0597 13.6764 48.5303 14.2058 47.8245 14.2058C47.1186 14.2058 46.5892 13.6764 46.5892 12.9705C46.5892 12.3529 47.1186 11.7352 47.8245 11.7352ZM43.5009 11.7352C44.2068 11.7352 44.7362 12.2646 44.7362 12.9705C44.7362 13.6764 44.2068 14.2058 43.5009 14.2058C42.795 14.2058 42.2656 13.6764 42.2656 12.9705C42.2656 12.3529 42.795 11.7352 43.5009 11.7352Z" fill="#000D44"/>
</svg>
